<?xml version="1.0" standalone="no"?>
<!DOCTYPE svg PUBLIC "-//W3C//DTD SVG 20010904//EN"
 "http://www.w3.org/TR/2001/REC-SVG-20010904/DTD/svg10.dtd">
<svg version="1.0" xmlns="http://www.w3.org/2000/svg"
 width="315.000000pt" height="315.000000pt" viewBox="0 0 315.000000 315.000000"
 preserveAspectRatio="xMidYMid meet">
<metadata>
Created by potrace 1.11, written by Peter Selinger 2001-2013
</metadata>
<g transform="translate(0.000000,315.000000) scale(0.100000,-0.100000)"
fill="#000000" stroke="none">
<path d="M41 1919 c11 -7 11 -9 1 -9 -7 0 -10 -4 -7 -10 3 -5 1 -10 -6 -10 -8
0 -8 -4 1 -15 10 -12 10 -15 -1 -15 -10 -1 -9 -4 4 -14 9 -7 17 -23 17 -35 0
-15 4 -20 13 -15 7 5 6 0 -3 -11 -9 -11 -10 -16 -3 -11 9 5 13 -1 13 -21 0
-16 5 -34 12 -41 7 -7 9 -12 5 -12 -4 0 -1 -13 8 -29 11 -23 12 -31 2 -34 -9
-4 -9 -6 1 -6 8 -1 10 -6 5 -13 -9 -16 -14 -42 -6 -34 8 8 43 -23 43 -37 0 -6
-7 -2 -15 9 -13 17 -13 15 -2 -16 7 -19 17 -38 22 -42 6 -5 5 -11 -4 -17 -19
-13 4 -55 27 -47 15 5 15 4 -1 -8 -16 -12 -16 -14 -1 -20 12 -5 14 -9 5 -20
-8 -10 -8 -16 2 -25 8 -6 16 -9 19 -6 2 3 5 -1 5 -9 0 -8 -6 -12 -15 -9 -12 5
-12 3 -1 -16 8 -11 18 -21 24 -21 5 0 3 -5 -5 -10 -13 -8 -12 -10 3 -10 12 0
16 -4 10 -12 -19 -32 -10 -36 88 -37 67 -1 99 2 99 9 0 6 -6 8 -12 5 -7 -4 -2
3 12 15 14 12 19 19 13 15 -7 -3 -13 -1 -13 5 0 6 7 13 15 16 8 4 15 11 15 16
0 6 -8 7 -17 4 -16 -6 -16 -6 0 12 18 20 23 47 7 37 -5 -3 -5 7 1 25 6 17 16
27 21 24 7 -5 9 2 6 19 -3 17 -1 24 5 20 6 -4 8 0 4 9 -3 9 -3 19 1 22 10 11
9 46 -2 47 -6 0 -1 4 12 10 13 5 21 13 18 17 -3 5 4 21 15 38 10 16 19 25 20
19 0 -5 2 -18 4 -28 2 -9 0 -15 -4 -13 -4 3 -6 -5 -5 -17 1 -12 3 -26 3 -30 1
-5 6 -5 11 -2 16 10 12 -2 -7 -21 -17 -17 -17 -17 -1 -11 12 4 21 0 28 -13 7
-14 7 -20 0 -20 -5 0 -10 5 -10 12 0 6 -3 8 -7 4 -5 -4 1 -14 11 -22 14 -10
16 -14 5 -14 -10 -1 -9 -5 5 -15 12 -9 15 -15 7 -15 -11 0 -11 -3 0 -17 8 -9
9 -14 3 -10 -6 3 -11 0 -11 -8 0 -8 5 -11 10 -8 6 4 8 0 4 -10 -4 -11 -1 -17
7 -17 8 0 13 -8 11 -17 -1 -10 2 -24 8 -30 6 -8 6 -13 0 -13 -5 0 -10 -7 -10
-15 0 -8 5 -11 10 -8 6 4 8 0 4 -9 -5 -13 9 -16 96 -17 68 -1 97 2 87 8 -12 9
-12 11 2 16 10 4 14 13 11 22 -4 10 -2 14 4 10 13 -8 12 11 -1 32 -7 11 -5 13
7 8 10 -3 17 -2 17 2 0 5 -6 12 -12 14 -10 4 -10 6 0 6 10 1 10 6 1 24 -11 20
-11 21 5 8 9 -8 16 -10 15 -5 -4 21 2 45 9 40 10 -6 9 25 -2 42 -4 7 -1 14 7
18 9 3 13 14 10 27 -4 18 -3 19 7 7 9 -12 11 -10 7 13 -2 15 0 27 4 27 5 0 5
7 2 17 -5 11 -3 14 6 8 10 -6 11 -3 2 13 -8 15 -8 23 1 28 7 5 8 3 3 -6 -5 -8
-4 -11 2 -7 6 4 9 18 7 33 -1 16 2 24 9 21 7 -3 12 5 12 18 0 13 -3 21 -6 19
-3 -1 -6 3 -6 11 0 8 5 11 10 8 6 -4 8 1 4 11 -6 14 -3 17 10 12 14 -6 15 -5
6 5 -10 10 -9 15 5 26 11 9 11 12 2 7 -11 -5 -10 -1 3 13 13 15 15 23 7 28 -8
5 -6 14 5 32 14 20 14 27 3 41 -7 9 -8 13 -2 9 7 -4 14 0 17 8 4 8 -1 16 -11
19 -24 8 -194 4 -182 -4 6 -4 8 -14 4 -23 -3 -9 -11 -14 -18 -10 -6 4 -5 -1 3
-10 12 -15 11 -17 -5 -17 -15 0 -16 -2 -5 -9 13 -8 13 -12 0 -27 -9 -11 -9
-15 -1 -10 16 10 15 -2 -2 -19 -7 -8 -17 -11 -21 -7 -5 4 -5 2 -1 -5 4 -7 12
-11 19 -9 7 1 9 1 4 -1 -4 -3 -4 -10 -1 -15 4 -7 2 -8 -4 -4 -7 4 -12 4 -13
-1 -3 -54 -14 -100 -25 -106 -9 -5 -11 -18 -7 -39 5 -24 3 -29 -7 -23 -10 6
-10 4 -2 -11 8 -15 7 -24 -6 -38 -9 -11 -12 -16 -5 -13 6 4 14 3 17 -2 4 -5
-2 -8 -11 -7 -10 2 -22 -2 -26 -8 -4 -6 -5 1 -1 17 4 16 1 33 -6 42 -6 8 -9
23 -5 35 4 12 2 20 -5 20 -6 0 -8 -6 -4 -12 4 -8 3 -10 -2 -5 -12 12 -12 30 1
39 6 5 6 8 -2 8 -7 0 -13 8 -13 18 0 10 -6 24 -12 31 -11 10 -9 11 7 5 18 -6
18 -5 -2 15 -13 12 -23 25 -24 29 0 4 -2 16 -4 27 -2 11 1 23 8 27 9 6 9 8 -1
8 -9 0 -11 7 -7 21 5 16 4 19 -6 14 -9 -6 -11 -3 -6 9 4 10 1 19 -8 22 -8 3
-11 12 -8 21 4 10 2 14 -5 9 -6 -3 -14 -1 -18 5 -4 7 -3 9 4 5 6 -3 13 -2 17
3 3 6 -22 10 -65 10 -62 0 -70 -3 -70 -19 0 -10 -5 -22 -10 -25 -8 -5 -8 -11
-1 -19 8 -10 5 -18 -9 -31 -11 -10 -20 -23 -20 -29 0 -6 5 -4 10 4 7 10 10 11
10 2 0 -7 -6 -15 -12 -17 -7 -3 -14 -22 -15 -43 -3 -60 -7 -81 -14 -76 -4 2
-10 0 -14 -6 -3 -5 0 -10 7 -10 10 0 10 -2 -1 -9 -8 -5 -11 -16 -8 -24 3 -9
-1 -18 -9 -21 -8 -3 -14 -11 -14 -18 0 -9 3 -8 10 2 8 12 9 9 8 -11 -2 -19 -7
-25 -18 -22 -12 4 -11 2 2 -10 16 -12 15 -14 -12 -14 -25 0 -28 3 -17 16 9 12
9 13 0 7 -12 -6 -16 4 -12 30 0 4 -5 11 -13 15 -10 7 -8 9 7 9 19 1 19 1 2 11
-15 9 -16 13 -5 27 7 9 8 13 2 9 -7 -4 -14 0 -17 8 -4 8 -1 13 6 11 7 -1 9 -1
4 1 -4 3 -5 9 -2 14 4 5 -2 6 -12 2 -16 -6 -17 -5 -3 12 8 10 10 16 4 12 -16
-9 -25 18 -11 32 7 7 7 11 1 11 -14 0 -14 30 0 31 6 0 2 4 -8 8 -24 9 -31 42
-8 35 15 -5 15 -4 0 6 -10 6 -15 17 -11 27 4 11 3 14 -5 9 -8 -5 -12 2 -12 23
l0 30 -91 -1 c-56 0 -86 -4 -78 -9z m689 -283 c0 -3 -4 -8 -10 -11 -5 -3 -10
-1 -10 4 0 6 5 11 10 11 6 0 10 -2 10 -4z"/>
<path d="M1156 1919 c2 -5 -4 -16 -15 -25 -10 -9 -17 -23 -14 -30 3 -8 0 -14
-7 -14 -10 0 -10 -3 -1 -14 9 -11 8 -18 -4 -30 -9 -9 -13 -16 -8 -16 4 0 0 -5
-9 -11 -10 -5 -15 -16 -12 -24 4 -8 1 -15 -6 -15 -9 0 -9 -4 1 -17 10 -11 10
-14 2 -9 -8 4 -13 2 -13 -5 0 -6 -8 -18 -17 -25 -17 -13 -17 -14 2 -8 17 5 18
4 5 -8 -9 -7 -15 -23 -14 -36 1 -15 -3 -21 -12 -18 -9 3 -11 0 -7 -11 5 -12 3
-14 -8 -8 -8 4 -11 5 -7 0 4 -4 2 -15 -5 -23 -9 -13 -9 -14 1 -8 6 4 12 2 12
-3 0 -6 -4 -11 -9 -11 -6 0 -8 -9 -6 -21 3 -15 0 -19 -11 -15 -12 5 -14 1 -9
-15 4 -12 3 -19 -2 -16 -5 3 -10 -3 -10 -14 -1 -13 2 -17 10 -12 7 4 5 -4 -5
-17 -9 -14 -23 -24 -31 -24 -12 1 -14 -4 -7 -21 6 -15 4 -27 -3 -35 -9 -10 -9
-11 3 -6 8 4 4 -2 -10 -14 -14 -12 -19 -18 -11 -14 11 6 11 2 -2 -15 -8 -13
-13 -29 -11 -36 3 -7 0 -16 -6 -20 -24 -15 16 -25 102 -25 77 0 87 2 81 17 -4
9 -2 14 4 10 5 -3 9 4 9 16 -1 12 4 21 11 20 7 -2 10 4 7 12 -4 8 -1 15 6 15
6 0 8 4 5 10 -4 6 1 7 11 3 13 -5 15 -3 9 7 -6 10 -4 10 10 3 10 -6 32 -7 51
-3 19 4 36 4 39 0 2 -4 22 -4 44 0 25 4 44 3 50 -3 8 -8 11 -7 11 2 0 11 3 11
15 1 8 -7 15 -9 15 -4 0 5 5 1 11 -9 5 -9 7 -22 3 -29 -4 -6 -3 -8 3 -5 6 4
15 -5 22 -19 16 -35 13 -44 -4 -14 -16 28 -21 19 -5 -9 8 -16 24 -19 103 -20
l93 -2 2 31 c1 19 -3 33 -12 36 -8 3 -12 13 -9 24 3 10 0 21 -6 24 -5 4 -7 14
-4 23 5 12 3 14 -7 8 -10 -6 -12 -4 -7 8 4 11 -1 18 -14 22 -11 4 -16 11 -12
18 10 17 11 47 1 53 -4 3 -6 10 -3 15 3 5 -1 6 -9 3 -11 -4 -16 0 -17 12 -3
56 -4 59 -24 57 -11 -1 -14 0 -7 3 10 5 10 9 0 22 -11 12 -11 16 0 20 10 3 8
8 -6 18 -13 9 -19 23 -18 38 2 18 -1 23 -12 19 -12 -5 -12 -2 -2 17 9 18 9 21
0 15 -8 -5 -11 -3 -8 5 2 8 -4 22 -13 31 -11 11 -15 26 -12 40 5 17 3 20 -8
14 -11 -7 -11 -5 1 10 12 15 12 17 1 10 -11 -6 -13 -4 -8 8 3 9 1 19 -5 23 -7
5 -8 2 -4 -7 4 -8 1 -6 -7 4 -8 9 -13 28 -12 41 2 15 -3 27 -13 31 -24 9 -202
4 -196 -6z m119 -238 c11 -14 14 -21 8 -17 -19 11 -16 -5 5 -21 9 -8 11 -11 3
-7 -10 5 -12 3 -5 -7 5 -8 7 -22 6 -31 -2 -12 3 -18 15 -18 15 0 16 -2 3 -10
-13 -9 -13 -10 0 -10 19 0 24 -39 7 -59 -9 -12 -9 -13 1 -7 6 4 12 5 12 2 0
-3 -9 -10 -20 -16 -15 -8 -18 -8 -15 3 4 8 -2 13 -14 13 -11 0 -18 -4 -15 -7
2 -4 -1 -11 -7 -15 -8 -4 -9 -3 -5 4 5 9 -3 11 -29 7 -33 -4 -36 -3 -30 18 7
22 7 22 -10 2 -9 -11 -14 -15 -11 -9 3 6 7 21 10 35 13 63 16 73 26 79 6 4 10
11 9 16 -1 5 0 12 1 17 5 15 8 27 9 44 1 14 3 14 24 -3 12 -10 16 -12 10 -4
-7 8 -13 18 -13 24 0 5 1 7 3 5 1 -2 11 -15 22 -28z"/>
<path d="M1226 1498 c3 -5 10 -6 15 -3 13 9 11 12 -6 12 -8 0 -12 -4 -9 -9z"/>
<path d="M1674 1918 c-4 -6 -2 -14 5 -16 8 -3 4 -11 -10 -23 -21 -18 -21 -19
-3 -19 18 -1 18 -1 2 -11 -10 -5 -18 -15 -18 -22 0 -7 4 -6 10 3 7 11 10 5 11
-25 0 -22 2 -52 3 -67 2 -15 -1 -25 -6 -22 -4 3 -5 11 -2 17 4 7 3 8 -1 4 -23
-20 -11 -43 19 -38 5 1 4 -5 -3 -13 -8 -10 -11 -36 -8 -75 2 -33 0 -58 -5 -55
-4 3 -5 10 -2 16 4 7 2 8 -5 4 -12 -8 -8 -19 18 -50 10 -12 11 -16 3 -12 -10
6 -13 1 -11 -20 2 -16 8 -35 14 -43 8 -12 6 -12 -15 -1 -14 7 -22 9 -18 5 4
-5 2 -15 -5 -24 -10 -14 -10 -14 5 -3 11 9 18 10 23 2 3 -5 1 -10 -6 -10 -8 0
-9 -3 0 -13 6 -8 9 -16 7 -18 -8 -10 -16 -60 -8 -55 5 3 9 -1 9 -9 0 -8 -4
-12 -8 -10 -4 3 -10 -2 -13 -11 -3 -8 -2 -12 4 -9 6 4 10 -7 10 -25 0 -21 -4
-29 -12 -24 -6 4 -8 3 -5 -3 4 -6 45 -11 93 -12 58 -1 84 1 79 8 -3 6 1 11 10
11 9 0 13 5 10 10 -4 6 -9 8 -13 6 -10 -6 -7 132 3 141 4 5 5 2 0 -6 -6 -10
-4 -12 4 -7 9 6 9 11 0 22 -6 7 -16 11 -22 7 -6 -4 -7 -1 -3 6 5 7 15 10 23 7
8 -3 11 -1 8 5 -4 5 -1 17 6 25 10 12 14 12 20 2 7 -10 9 -10 9 1 0 10 3 11
14 2 11 -9 16 -9 21 0 6 8 10 8 15 -2 7 -10 11 -10 24 0 13 11 16 11 16 0 0
-11 2 -11 10 1 6 10 10 11 10 3 0 -7 5 -13 11 -13 5 0 8 4 5 8 -3 5 1 9 9 9 8
0 15 -5 15 -11 0 -6 5 -5 12 2 16 16 31 15 22 0 -5 -9 -2 -9 9 1 9 7 17 10 17
7 0 -4 11 4 24 18 24 27 42 35 30 14 -4 -7 4 -2 18 12 13 14 23 28 21 31 -1 4
4 10 13 13 8 3 13 10 10 14 -3 5 1 21 9 36 10 18 11 25 2 21 -7 -4 -5 0 5 7
12 10 13 19 7 31 -8 13 -6 17 6 17 9 0 13 5 10 10 -4 6 -11 8 -16 5 -5 -4 -5
5 1 20 5 14 6 24 1 21 -5 -3 -12 1 -15 10 -4 10 -2 13 7 8 8 -5 8 -2 -2 9 -7
9 -11 23 -8 31 4 11 1 13 -10 9 -13 -5 -15 -2 -10 11 5 11 3 15 -5 10 -8 -5
-9 -2 -5 9 3 9 3 16 -1 16 -20 -3 -33 2 -27 11 3 6 -1 10 -10 10 -10 0 -13 5
-9 11 5 8 -1 10 -20 7 -20 -4 -26 -2 -24 11 3 14 -20 16 -204 18 -151 2 -209
0 -214 -9z m416 -4 c0 -8 -19 -13 -24 -6 -3 5 1 9 9 9 8 0 15 -2 15 -3z m-207
-137 c-3 -5 0 -7 8 -5 8 3 24 1 37 -3 15 -6 21 -5 17 1 -4 6 5 10 19 10 17 0
26 -6 26 -16 0 -8 5 -12 10 -9 6 4 18 -2 28 -12 9 -11 13 -13 8 -6 -18 27 4
12 24 -17 14 -20 16 -28 7 -24 -10 4 -14 -2 -13 -17 0 -12 -6 -24 -14 -26 -13
-4 -13 -3 0 7 13 10 13 11 0 7 -8 -2 -16 -9 -16 -15 -1 -7 -2 -17 -3 -24 0 -6
-4 -8 -8 -5 -3 4 -11 2 -18 -3 -7 -6 -23 -6 -43 -1 -26 8 -30 7 -25 -6 5 -12
0 -12 -23 3 -15 11 -25 14 -21 8 4 -8 -1 -11 -17 -10 -14 0 -22 6 -19 14 4 8
-1 10 -13 6 -18 -6 -18 -6 0 8 15 12 16 17 6 23 -9 6 -11 4 -5 -5 5 -7 4 -11
-1 -7 -5 3 -9 27 -9 54 1 39 4 48 18 47 14 -2 15 1 6 12 -10 12 -9 13 6 8 11
-5 16 -4 12 3 -3 5 0 10 8 10 8 0 11 -5 8 -10z"/>
<path d="M1833 1735 c0 -8 4 -12 9 -9 5 3 6 10 3 15 -9 13 -12 11 -12 -6z"/>
<path d="M2310 1916 c0 -9 -6 -16 -12 -16 -8 0 -9 -3 -3 -8 12 -8 16 -64 4
-57 -4 3 -10 1 -14 -5 -3 -5 2 -10 12 -10 15 0 16 -2 3 -10 -8 -5 -10 -10 -5
-10 16 0 11 -60 -5 -70 -13 -8 -13 -10 1 -10 11 0 16 -9 16 -30 0 -20 -3 -26
-9 -18 -6 10 -8 9 -8 -3 0 -9 3 -19 7 -23 4 -3 8 -14 9 -24 2 -12 -2 -10 -17
8 l-20 25 12 -27 c7 -16 16 -28 21 -28 4 0 8 -5 8 -11 0 -5 -4 -8 -9 -4 -5 3
-13 1 -16 -5 -4 -6 -1 -9 6 -8 7 2 12 -10 14 -29 1 -18 -2 -30 -6 -27 -4 2
-10 0 -14 -6 -3 -5 2 -10 12 -10 15 0 16 -2 3 -10 -13 -9 -13 -10 0 -10 13 0
13 -1 0 -10 -11 -7 -12 -10 -2 -10 10 0 9 -4 -3 -16 -11 -11 -13 -20 -6 -27 5
-5 7 -16 4 -25 -5 -11 -3 -13 8 -7 12 7 12 6 1 -7 -10 -13 -10 -17 0 -21 10
-4 10 -6 1 -6 -7 -1 -13 -6 -13 -12 0 -5 4 -8 9 -5 10 6 8 -37 -4 -73 -5 -16
-4 -21 4 -17 6 4 11 2 11 -4 0 -7 29 -10 85 -9 70 1 82 4 69 14 -13 9 -14 14
-4 20 10 6 9 9 -1 17 -10 7 -8 8 9 5 12 -3 20 -1 16 4 -3 5 -13 9 -22 9 -15 0
-15 2 -2 10 8 5 10 10 4 10 -7 0 -11 11 -10 24 0 13 4 22 9 19 4 -2 7 1 7 6 0
6 -6 11 -12 12 -7 0 -4 4 7 9 l20 9 -20 0 c-15 1 -17 3 -7 10 8 4 14 12 14 16
0 4 -6 12 -14 17 -9 7 -7 8 10 5 12 -3 20 -1 16 4 -3 5 -13 9 -22 9 -15 0 -15
2 -2 10 8 5 10 10 4 10 -7 0 -11 11 -10 24 0 13 4 22 9 19 4 -2 7 1 7 6 0 6
-6 11 -12 12 -7 0 -4 4 7 9 l20 9 -20 0 c-15 1 -17 3 -7 10 8 4 14 12 14 16 0
4 -6 12 -14 17 -9 7 -7 8 10 5 12 -3 20 -1 16 4 -3 5 -13 9 -22 9 -15 0 -15 2
-2 10 8 5 10 10 4 10 -7 0 -11 11 -10 24 0 13 4 22 9 19 4 -2 7 1 7 6 0 6 -6
11 -12 12 -7 0 -4 4 7 9 l20 9 -20 0 c-15 1 -17 3 -7 10 8 4 14 12 14 16 0 4
-6 12 -14 17 -9 7 -7 8 10 5 12 -3 20 -1 16 4 -3 5 -13 9 -22 9 -15 0 -15 2
-2 10 8 5 10 10 4 10 -7 0 -11 11 -10 24 0 13 4 22 9 19 4 -2 7 1 7 6 0 6 -6
11 -12 12 -7 0 -4 4 7 9 17 7 17 9 3 9 -14 1 -16 6 -9 25 9 23 9 23 -70 25
-66 2 -79 -1 -79 -13z m10 -480 c0 -2 -7 -7 -16 -10 -8 -3 -12 -2 -9 4 6 10
25 14 25 6z"/>
<path d="M2562 1914 c-16 -17 -1 -19 18 -1 8 6 6 2 -4 -10 -10 -13 -23 -20
-29 -16 -6 4 -6 0 0 -12 6 -10 8 -27 5 -38 -4 -15 -2 -18 9 -12 11 6 12 5 2
-6 -7 -7 -13 -19 -13 -27 0 -8 5 -10 13 -6 10 6 10 4 0 -7 -7 -7 -13 -19 -13
-27 0 -8 5 -10 13 -6 10 6 10 4 0 -7 -7 -7 -13 -19 -13 -27 0 -8 5 -10 13 -6
10 6 10 4 0 -7 -7 -7 -13 -19 -13 -27 0 -8 5 -10 13 -6 10 6 10 4 0 -7 -7 -7
-13 -19 -13 -27 0 -8 5 -10 13 -6 10 6 10 4 0 -7 -7 -7 -13 -19 -13 -27 0 -8
5 -10 13 -6 10 6 10 4 0 -7 -7 -7 -13 -19 -13 -27 0 -8 5 -10 13 -6 10 6 10 4
0 -7 -7 -7 -13 -19 -13 -27 0 -8 5 -10 13 -6 10 6 10 4 0 -7 -7 -7 -13 -19
-13 -27 0 -8 5 -10 13 -6 10 6 10 4 0 -7 -7 -7 -13 -19 -13 -27 0 -8 5 -10 13
-6 10 6 10 4 0 -7 -7 -7 -13 -19 -13 -27 0 -8 5 -10 13 -6 10 6 10 4 0 -7 -7
-7 -13 -19 -13 -27 0 -8 5 -10 13 -6 9 6 9 4 1 -7 -16 -20 -16 -81 -1 -73 8 5
8 3 0 -7 -24 -25 -13 -29 78 -29 57 0 88 4 84 10 -3 5 -1 10 5 10 8 0 8 6 0
20 -9 16 -8 20 7 21 16 0 16 1 -2 9 -11 5 -14 9 -8 9 9 1 10 8 3 27 -6 14 -6
23 -2 20 9 -6 8 61 -1 71 -4 3 1 12 11 20 9 8 11 12 5 8 -8 -4 -11 -1 -7 8 3
8 12 14 20 13 16 -2 54 -41 54 -55 0 -5 13 -23 29 -40 16 -17 26 -31 23 -31
-4 0 1 -5 11 -11 9 -5 17 -17 17 -25 0 -9 5 -12 12 -8 8 5 9 2 5 -9 -4 -11 -1
-17 8 -17 7 0 17 -4 20 -10 3 -6 -1 -7 -12 -4 -11 3 -9 0 5 -8 12 -8 19 -17
15 -22 -4 -4 41 -6 100 -5 104 1 107 2 107 24 0 13 -7 26 -16 29 -8 3 -13 9
-10 14 2 4 0 14 -6 22 -8 12 -9 12 -4 -2 3 -10 1 -18 -5 -18 -5 0 -12 13 -15
30 -4 16 -9 28 -13 26 -3 -2 -15 6 -26 17 -11 11 -13 16 -5 12 8 -4 0 8 -18
27 -18 19 -29 37 -26 41 4 3 -3 5 -15 2 -18 -3 -20 -1 -11 16 8 15 8 19 -2 17
-7 -2 -12 2 -11 9 2 8 -4 10 -14 6 -11 -4 -14 -3 -9 5 4 7 2 12 -4 12 -6 0 -8
5 -5 10 3 6 -1 13 -9 16 -9 3 -16 12 -16 20 0 8 -4 14 -9 14 -12 0 -8 31 7 58
8 14 19 21 28 18 7 -3 13 -2 13 2 -3 20 3 32 16 32 8 0 14 6 13 13 -2 6 3 11
11 9 12 -3 12 -1 0 14 -9 12 -9 15 -1 10 7 -4 12 -2 12 4 0 6 5 8 10 5 6 -3
10 1 10 9 0 9 5 16 10 16 6 0 15 11 20 25 5 14 15 25 21 25 7 0 10 3 6 6 -10
10 22 36 35 28 7 -4 10 -4 6 1 -4 4 -3 14 3 22 9 10 8 17 -2 31 -13 15 -12 16
3 4 9 -8 19 -9 22 -4 10 16 -22 22 -120 22 -58 0 -93 -4 -89 -9 3 -6 -4 -15
-15 -21 -11 -6 -19 -16 -17 -23 1 -7 -4 -11 -10 -10 -7 2 -13 -4 -13 -12 0 -8
-7 -15 -16 -15 -14 0 -14 -3 -4 -15 11 -13 10 -14 -3 -10 -8 4 -18 1 -23 -6
-5 -8 -3 -10 5 -4 7 4 5 -5 -4 -19 -11 -16 -24 -25 -32 -22 -10 4 -11 2 -5
-11 7 -12 3 -22 -19 -41 -17 -13 -26 -29 -22 -35 4 -8 2 -8 -9 0 -8 7 -18 10
-21 7 -4 -4 -2 7 3 25 5 19 5 29 -1 26 -5 -4 -9 -1 -9 4 0 6 4 11 10 11 6 0 6
9 0 26 -6 14 -6 23 -1 20 11 -7 9 13 -2 32 -5 6 -4 12 0 12 9 0 9 63 -1 78
-10 17 -149 13 -164 -4z m463 -504 c3 -5 1 -10 -4 -10 -6 0 -11 5 -11 10 0 6
2 10 4 10 3 0 8 -4 11 -10z"/>
<path d="M605 1770 c-3 -5 -1 -10 4 -10 6 0 11 5 11 10 0 6 -2 10 -4 10 -3 0
-8 -4 -11 -10z"/>
<path d="M1650 1771 c0 -6 4 -13 10 -16 6 -3 7 1 4 9 -7 18 -14 21 -14 7z"/>
<path d="M2276 1772 c-3 -5 1 -9 9 -9 8 0 12 4 9 9 -3 4 -7 8 -9 8 -2 0 -6 -4
-9 -8z"/>
<path d="M2769 1723 c-13 -16 -12 -17 4 -4 9 7 17 15 17 17 0 8 -8 3 -21 -13z"/>
<path d="M1655 1679 c-4 -6 -5 -12 -2 -15 2 -3 7 2 10 11 7 17 1 20 -8 4z"/>
<path d="M2469 1663 c-13 -16 -12 -17 4 -4 9 7 17 15 17 17 0 8 -8 3 -21 -13z"/>
<path d="M1650 1611 c0 -6 4 -13 10 -16 6 -3 7 1 4 9 -7 18 -14 21 -14 7z"/>
<path d="M2469 1503 c-13 -16 -12 -17 4 -4 9 7 17 15 17 17 0 8 -8 3 -21 -13z"/>
<path d="M1650 1491 c0 -6 4 -13 10 -16 6 -3 7 1 4 9 -7 18 -14 21 -14 7z"/>
<path d="M430 1389 c0 -5 5 -7 10 -4 6 3 10 8 10 11 0 2 -4 4 -10 4 -5 0 -10
-5 -10 -11z"/>
<path d="M2469 1343 c-13 -16 -12 -17 4 -4 9 7 17 15 17 17 0 8 -8 3 -21 -13z"/>
</g>
</svg>
